<?xml version="1.0" standalone="no"?>
<!DOCTYPE svg PUBLIC "-//W3C//DTD SVG 20010904//EN"
 "http://www.w3.org/TR/2001/REC-SVG-20010904/DTD/svg10.dtd">
<svg version="1.0" xmlns="http://www.w3.org/2000/svg"
 width="128.000000pt" height="128.000000pt" viewBox="0 0 128.000000 128.000000"
 preserveAspectRatio="xMidYMid meet">
<metadata>
Created by potrace 1.11, written by Peter Selinger 2001-2013
</metadata>
<g transform="translate(0.000000,128.000000) scale(0.100000,-0.100000)"
fill="#000000" stroke="none">
<path d="M114 948 c-24 -5 -52 -20 -69 -38 -52 -55 -48 -68 175 -536 50 -105
62 -122 93 -137 48 -23 98 -21 137 6 27 18 44 49 99 179 37 86 69 159 72 163
3 3 19 -23 34 -57 16 -35 43 -94 60 -133 18 -38 35 -79 39 -91 3 -11 20 -34
37 -50 26 -24 38 -29 83 -29 78 0 100 20 156 138 26 56 62 134 80 172 18 39
55 117 81 174 27 56 49 117 49 135 0 59 -55 106 -123 106 -61 0 -79 -26 -157
-220 -40 -100 -74 -180 -75 -178 -1 2 -35 80 -75 173 -40 94 -83 181 -95 194
-16 17 -38 25 -73 29 -76 7 -97 -18 -183 -223 -39 -93 -72 -171 -73 -173 -3
-3 -121 282 -130 313 -8 28 -46 68 -76 81 -16 6 -40 7 -66 2z"/>
</g>
</svg>
